<svg xmlns="http://www.w3.org/2000/svg" viewBox="0 0 96 96" fill="none">
  <!-- B (ivory) -->
  <path
    d="M28 18h24c12 0 20 6 20 16 0 7-4 12-11 14 9 2 14 8 14 16 0 12-9 18-23 18H28V18zm24 28c7 0 11-3 11-9s-4-9-11-9H40v18h12zm2 30c9 0 14-3 14-11s-5-11-14-11H40v22h14z"
    fill="#F5F1E8" opacity="0.95"
  />

  <!-- C (gold) -->
  <path
    d="M76 66c-4 6-11 10-20 10-14 0-26-11-26-28s12-28 26-28c9 0 16 4 20 10l-7 6c-3-4-7-7-13-7-9 0-16 8-16 19s7 19 16 19c6 0 10-3 13-7l7 6z"
    fill="#B08D57"
  />
</svg>
